<svg width="48" height="49" viewBox="0 0 48 49" fill="none" xmlns="http://www.w3.org/2000/svg">
<path fill-rule="evenodd" clip-rule="evenodd" d="M24.0001 48.3154C37.1946 48.3154 47.8908 37.6191 47.8908 24.4247C47.8908 19.5577 46.4355 15.0306 43.9363 11.2549L24.942 32.3597C23.1033 34.4027 20.0093 34.7045 17.8104 33.0553L9.13423 26.5482C7.96139 25.6686 7.7237 24.0047 8.60333 22.8319C9.48296 21.659 11.1468 21.4213 12.3197 22.301L20.9958 28.8081L40.4951 7.14221C36.2068 3.0481 30.3971 0.533936 24.0001 0.533936C10.8056 0.533936 0.109375 11.2302 0.109375 24.4247C0.109375 37.6191 10.8056 48.3154 24.0001 48.3154Z" fill="#5465FF"/>
</svg>
