<svg width="23" height="23" viewBox="0 0 23 23" fill="none" xmlns="http://www.w3.org/2000/svg">
<path d="M22.3151 0.976897C21.6625 0.324284 20.6082 0.324284 19.9556 0.976897L11.7729 9.14292L3.59012 0.960163C2.9375 0.30755 1.88328 0.30755 1.23067 0.960163C0.578058 1.61278 0.578058 2.667 1.23067 3.31961L9.41343 11.5024L1.23067 19.6851C0.578058 20.3377 0.578058 21.392 1.23067 22.0446C1.88328 22.6972 2.9375 22.6972 3.59012 22.0446L11.7729 13.8618L19.9556 22.0446C20.6082 22.6972 21.6625 22.6972 22.3151 22.0446C22.9677 21.392 22.9677 20.3377 22.3151 19.6851L14.1323 11.5024L22.3151 3.31961C22.951 2.68373 22.951 1.61278 22.3151 0.976897Z" fill="#878787"/>
</svg>
